<svg xmlns="http://www.w3.org/2000/svg" xmlns:xlink="http://www.w3.org/1999/xlink" width="672" height="425.432" viewBox="0 0 672 425.432">
  <defs>
    <rect id="rect-1" width="672" height="425.432" x="0" y="0"/>
    <mask id="mask-2" maskContentUnits="userSpaceOnUse" maskUnits="userSpaceOnUse">
      <rect width="672" height="425.432" x="0" y="0" fill="black"/>
      <use fill="white" xlink:href="#rect-1"/>
    </mask>
  </defs>
  <g>
    <use fill="none" xlink:href="#rect-1"/>
    <g mask="url(#mask-2)">
      <rect width="499.138" height="1.193" x="52.401" y="341.897" fill="rgb(63,61,86)" rx="0" ry="0"/>
      <rect width="206.334" height="147.38" x="247.404" y=".597" fill="rgb(108,99,255)" rx="0" ry="0"/>
      <path fill="rgb(242,242,242)" fill-rule="evenodd" d="M4.09679853 236.88125784S83.41029521 1.7900347 326.71786396 146.78284491c243.30756875 144.99281022 341.704012 100.24194287 341.704012 100.24194287"/>
      <rect width="223.032" height="1.193" x="250.982" y="381.874" fill="rgb(63,61,86)" rx="0" ry="0"/>
      <path fill="rgb(108,99,255)" fill-rule="evenodd" d="M600.36198646 362.18368643H421.84480212s-3.61860375-53.10257256 17.79140678-53.70604099c21.41001052-.60346843 18.99761001 23.5341112 45.8355023-9.65501753 26.83789229-33.18912873 59.40521267-31.37880698 63.62690908-11.76704963 4.22169642 19.61175734-8.14185842 35.30116083 14.47436727 30.47365206 22.61622569-4.82750876 55.18352818 7.84470175 36.7889989 44.65445609z"/>
      <path fill="rgb(242,242,242)" fill-rule="evenodd" d="M508.08997638 362.19576916l-.60250826-.02416547c1.4051191-34.96231323 8.72329195-57.42596578 14.61498473-70.11379136 6.39702709-13.77670368 12.56141517-19.35378948 12.62295768-19.40859437l.40078958.45095747c-.06065991.05421418-6.15319474 5.5759163-12.49898412 19.25935321-5.85916232 12.63420211-13.13727887 35.00563207-14.53723961 69.83624052z"/>
      <path fill="rgb(242,242,242)" fill-rule="evenodd" d="M572.69985997 362.2679553l-.57894679-.16853774c6.97156095-23.94248972 23.38862584-39.0591 23.55382453-39.20907508l.40520848.44668526c-.16373168.14879962-16.45799782 15.15844937-23.38008622 38.93092755z"/>
      <path fill="rgb(242,242,242)" fill-rule="evenodd" d="M449.96206881 362.22523313l-.59747513-.08309341c2.36527756-17.06835672-1.90720931-30.31100355-5.90803851-38.41440707-4.33197796-8.77402213-9.27470562-13.56617174-9.32417816-13.61360766l.41727844-.43549157c.050212.04802663 5.0693609 4.91384214 9.4475673 13.78185301 4.038196 8.17942034 8.3511745 21.5443504 5.96484606 38.7647467z"/>
      <path fill="rgb(108,99,255)" fill-rule="evenodd" d="M178.7481357 389.03420684H.23095136s-3.61860374-53.10257256 17.79140678-53.70604099c21.41001053-.60346843 18.99761002 23.5341112 45.8355023-9.65501753 26.8378923-33.18912873 59.40521267-31.37880698 63.62690909-11.76704963 4.22169642 19.61175734-8.14185842 35.30116083 14.47436726 30.47365206 22.6162257-4.82750876 55.18352818 7.84470175 36.78899891 44.65445609z"/>
      <path fill="rgb(242,242,242)" fill-rule="evenodd" d="M86.47612562 389.04628957l-.60250826-.02416547c1.4051191-34.96231323 8.72329196-57.42596578 14.61498473-70.11379136 6.3970271-13.77670368 12.56141518-19.35378948 12.62295768-19.40859437l.40078959.45095747c-.06065992.05421418-6.15319475 5.5759163-12.49898413 19.25935321-5.85916231 12.63420211-13.13727887 35.00563207-14.5372396 69.83624052z"/>
      <path fill="rgb(242,242,242)" fill-rule="evenodd" d="M151.08600921 389.1184757l-.57894678-.16853773c6.97156094-23.94248972 23.38862584-39.0591 23.55382452-39.20907508l.40520848.44668526c-.16373168.14879962-16.45799781 15.15844937-23.38008622 38.93092755z"/>
      <path fill="rgb(242,242,242)" fill-rule="evenodd" d="M28.34821806 389.07575354l-.59747513-.08309341c2.36527755-17.06835671-1.90720932-30.31100355-5.90803852-38.41440707-4.33197796-8.77402212-9.27470562-13.56617174-9.32417816-13.61360766l.41727845-.43549157c.050212.04802663 5.0693609 4.91384214 9.4475673 13.78185301 4.03819599 8.17942034 8.35117449 21.5443504 5.96484606 38.7647467z"/>
      <path fill="rgb(160,97,106)" fill-rule="evenodd" d="M558.21137132 344.4032718v10.71276097l8.9224702.5948882-.59514939-12.49802223-8.3273208 1.19037307z"/>
      <path fill="rgb(47,46,65)" fill-rule="evenodd" d="M559.99575206 349.16438819l-5.94818427-1.19030744s-8.327452 14.87883401-13.68081485 16.06914145c-4.68418952 1.04151975-15.74409286 4.81702513-11.66168407 10.13040301 1.24466286 1.5496164 3.18898756 2.36309394 5.16562244 2.16122226l25.53023934-2.17400907s10.11191026.59515073 10.11191026-5.35638049V349.1643882h-9.51708885z"/>
      <path fill="rgb(47,46,65)" fill-rule="evenodd" d="M558.95620258 288.94680363l-2.56248192 58.1116863 16.22766069 4.27281282-13.66517877-62.38449912z"/>
      <path fill="rgb(160,97,106)" fill-rule="evenodd" d="M564.93453193 367.56811078v15.38296149l12.81181326.85444322-.85396186-17.94629116-11.9578514 1.70888645z"/>
      <path fill="rgb(47,46,65)" fill-rule="evenodd" d="M538.45770689 214.59867923l6.83278021 10.25495363 15.37376443 92.2945707 2.56229109 55.54765254h25.62293475l-5.97868716-135.02351032s11.95736835-14.52784998 3.4163901-29.05569399l-47.82947342 5.98202744z"/>
      <path fill="rgb(47,46,65)" fill-rule="evenodd" d="M567.49703174 374.40499913l-8.54097825-1.70916093s-11.95736835 21.36448175-19.64424759 23.07364268c-6.58875703 1.46498826-21.9625155 6.69711647-17.07697704 14.0818688 1.73500763 2.50827286 4.6949703 3.875371 7.72830115 3.56941868l36.67980868-3.12344347s14.5196654.85458046 14.5196654-7.6911824v-28.20114336h-13.66557235z"/>
      <ellipse cx="568.351" cy="79.575" fill="rgb(160,97,106)" rx="17.936" ry="17.946"/>
      <path fill="rgb(160,97,106)" fill-rule="evenodd" d="M558.10195448 88.97553014v25.63740793c0 .85458046 19.64424758-1.70915496 19.64424758-1.70915496s.85409902-23.92822314.85409902-26.49195856l-20.4983466 2.56370559z"/>
      <path fill="rgb(63,61,86)" fill-rule="evenodd" d="M579.4544001 100.08506422s-11.1032932-2.56374138-30.7475229 10.25494766h-3.4163901l-.85409902 19.6553268s-11.95736835 12.81868307-10.24917032 17.94615989c0 0-14.5196654 17.0915854-8.54097825 23.92821717 0 0-13.66556639 16.2370109-7.68687923 23.07364267 0 0-14.5196654 18.8007344-5.97868716 21.36448175 0 0 18.7901426 0 29.03932486 1.70915496 10.24918224 1.70915496 52.95406157-7.6911824 52.95406157-7.6911824s.85409901-22.21905625 0-22.21905625h-.85409306s3.4163901-20.50990725 1.70819207-21.36448174c0 0 .85409902-23.07364268-1.70819207-23.92822314l-13.6655664-42.72898737z"/>
      <path fill="rgb(208,205,225)" fill-rule="evenodd" d="M576.71404126 119.76576774c-6.36738993.86772664-11.8491653 4.93300542-14.53095416 10.77614013-2.46875588 5.44455173-3.29353175 11.49228298-2.3729167 17.3995907 2.5622911 17.0915854 8.54097825 22.2190622 8.54097825 22.2190622s-5.97868716 2.56373543-4.27048912 5.12747682c1.70819803 2.5637414-1.70819804 2.56373542-1.70819804 2.56373542s0 .85458047-2.56229109 2.56373543c-2.56229109 1.70915496-4.27048912.85458046-5.12458814 1.70916092-.85409902.85458047-4.27048913 0-4.27048913 0s-10.24917628 17.94616587 0 19.65532083c10.24917629 1.70915496 14.51965945-6.83663178 18.79014261-5.98205131 4.27048316.85458046 24.76883573-5.98205728 23.06064366-22.21906222-1.70819207-16.23700493-9.39507727-54.69307208-15.37375846-53.83849161l-.17807968.02538269z"/>
      <path fill="rgb(47,46,65)" fill-rule="evenodd" d="M552.50559415 62.47504504c.88688507-3.57881854 3.42183662-6.5223719 6.82828976-7.92892287 3.36063808-1.35334977 8.2206352-5.24723014 11.26816985-3.28757176 1.36043519.8748019 2.52933723 2.03555586 3.94351476 2.82042044 2.28548102 1.26843051 4.98909922 1.4461929 7.56810578 1.86982847 6.48554215 1.06533318 11.918952 8.22658178 16.45087153 12.98927339 4.53191953 4.7626916 7.14825114 11.48169423 6.33411897 18.00711654-.53708357 4.3048067-2.47106268 8.29050989-3.75099169 12.43537102-1.279929 4.14486114-1.85263208 8.85160223.22053327 12.66175074 2.37779477 4.36999977 7.5182814 6.37491022 10.98862853 9.93866046 4.95094495 5.31499507 5.87167044 13.23405572 2.27235554 19.54428497-.7750837 1.29147423-1.74479555 2.50373943-2.15105956 3.95429404-.406264 1.45055462-.0457454 3.27323358 1.28929158 3.9696048.61003942.23853411 1.24097337.41965165 1.88461391.5410022 2.13975888.64648892 3.44314798 2.84324933 4.01375194 5.00559334.57060395 2.16234401.6207921 4.44763954 1.32348583 6.57071019 1.71611746 5.18481759 6.8423038 8.32169229 11.5911845 11.01491882-9.38215453-.25269323-18.91354367-.48921648-27.99284588 1.89010957-3.90230753 1.02264682-8.40671183 2.42451846-11.67074846.05280602-2.2374099-1.6257453-3.09051302-4.59197003-3.15349867-7.35796148-.06298565-2.76599144.51058809-5.51683919.4520273-8.28293207-.12654975-5.97836383-3.3303797-11.70416571-8.05414247-15.36719127-2.79547277-2.16773202-6.0830351-3.66944582-8.72614843-6.0207638-4.56712013-4.1540634-6.6782928-10.3661483-5.588751-16.44479216.40925765-2.14672297 1.22182144-4.25754382 1.10096675-6.43961998-.23849509-4.30598812-3.98784087-7.67516755-4.7910898-11.9122095-.84382404-4.45104658 1.6871591-8.7844998 2.39120651-13.2598073.32517837-2.7241829.2765495-5.48006168-.14453543-8.19106153-.53064307-4.49793355-1.33068368-9.16306826-3.9956589-12.82410689-2.50659275-3.44346587-5.97748852-5.7287972-10.22763642-5.98071475-1.3678179-.08107664.54893885-1.25616878 0 0"/>
      <ellipse cx="567.07" cy="80.857" fill="rgb(160,97,106)" rx="1.708" ry="3.418"/>
      <path fill="rgb(255,184,184)" fill-rule="evenodd" d="M86.09390613 304.6042371l6.55976288 65.63460545 11.33049953-1.7900347 4.77073664-62.65121429-22.66099905-1.19335646z"/>
      <path fill="rgb(47,46,65)" fill-rule="evenodd" d="M105.77312322 361.8853473l-15.50489409 2.38671293 1.78902624 19.0937034s-5.36707872 2.98339116-1.78902624 12.53024287c3.57805248 9.5468517 3.57805248 11.93356462 3.57805248 11.93356462l12.28342435-1.18938855c4.76020525-.460922 16.2011831-4.7540875 17.8318507-9.2524805.67644275-1.8660515-6.5431965-2.25411908-8.05061808-2.68505204-4.17439456-1.19335646-10.13781536-32.81730272-10.13781536-32.81730272z"/>
      <path fill="rgb(255,184,184)" fill-rule="evenodd" d="M144.53543 302.21752418l6.55976288 65.63460544 11.33049952-1.7900347 4.77073665-62.65121428-22.66099905-1.19335646z"/>
      <ellipse cx="134.099" cy="72.198" fill="rgb(255,184,184)" rx="18.487" ry="18.497"/>
      <path fill="rgb(255,184,184)" fill-rule="evenodd" d="M139.16827971 85.02664797s-4.77073664 12.53024285 0 16.70699047c4.77073665 4.17674762-31.60613025 4.17674762-31.60613025 4.17674762l14.908552-26.8505204 16.69757825 5.9667823z"/>
      <path fill="rgb(63,61,86)" fill-rule="evenodd" d="M174.35246245 306.3942718c-7.75244704 13.72359932-83.48789124 4.17674761-83.48789124 4.17674761l-13.11952577-8.35349523-5.36707872-2.98339116s3.57805248-57.28111021 10.13781537-92.48512586c6.55976288-35.20401565 23.25734113-37.59072857 23.25734113-37.59072857l.0596342-.69214675.53670788-6.46799203s-.49501164-.53104363-1.3477331-1.49169558c-5.31335427-6.00854979-24.39630084-28.77182431-21.31326595-42.66249354 3.57805248-16.11031225 30.4134461-23.86712925 46.51468226-24.46380748 16.10123617-.59667824 29.81710401 13.72359932 29.81710401 13.72359932l-2.32573411 9.75568908-10.19744957 42.75199527-.15504894.89501735-1.6339773 9.24851259c2.99960066.18497025 4.93771242.84728309 6.18406737 1.66473226 2.7252833 1.77810113 2.16472175 4.30205005 2.16472175 4.30205005l9.13003303 58.85634074 11.1455977 71.81619192z"/>
      <path fill="rgb(255,184,184)" fill-rule="evenodd" d="M72.37796672 227.63274526s-2.63557557 26.01077933 3.75112288 26.72898899c6.38669845.71820965 4.59766625-26.728989 4.59766625-26.728989h-8.34878913z"/>
      <path fill="rgb(63,61,86)" fill-rule="evenodd" d="M92.05725537 110.68381191s-10.13781536-.59667823-11.9268416 10.74020817c-1.78902625 11.3368864-3.57805249 54.89439728-3.57805249 54.89439728l-10.13781536 54.29771905 20.8719728 2.38671293 13.71586786-82.34159593-8.9451312-39.9774415z"/>
      <path fill="rgb(255,184,184)" fill-rule="evenodd" d="M178.52685701 228.82610172s4.17439456 23.86712925-2.38536832 24.46380748c-6.55976288.59667824-8.9451312-23.27045102-8.9451312-23.27045102l11.33049952-1.19335646z"/>
      <path fill="rgb(47,46,65)" fill-rule="evenodd" d="M129.19578826 44.49994625c-1.63311373-.08840622-3.27091173.02229918-4.87730297.32967666-1.76655216.46678363-3.46299356 1.16722153-5.04445766 2.0827889-7.38767055 3.925021-14.69114357 9.03961554-18.15861634 16.65592676-2.8470981 6.25367714-2.74859432 13.44782657-1.81884335 20.25650994.29908941 2.19029242.67722396 4.43033586.21513637 6.5920653-.95105827 4.44926846-5.14794686 7.43863237-7.05380248 11.56963864-1.95516118 4.23788327-1.2737032 9.31209461.68141625 13.55000175.55794957 1.20940114 1.23244825 2.5095809.9209907 3.80464714-.20199722.6610368-.54005804 1.27244417-.99243249 1.7948857-1.53784695 2.00135425-3.31165454 3.83090694-4.63463945 5.9805059-1.3229849 2.14959897-2.17639216 4.74051308-1.6217821 7.20325475.5727985 2.54350803 2.51577044 4.5179342 4.37435402 6.34541045 1.7442171 1.7150203 3.79623616 3.5534814 6.23813175 3.42135298 1.46901715-.0794835 2.78972403-.87628762 4.04102862-1.65041199 3.75112288-2.32063081 7.881084-5.19934074 8.47009106-9.57250886 1.14890073 3.91288457 5.7724661 5.6167649 9.83904799 5.8927942 3.45432939.23445875 7.0690748-.18751806 10.02813613-1.98610912 2.95906132-1.79859106 5.11219615-5.18439992 4.73392444-8.62788369-.29527878-2.68803543-2.01369216-5.48248843-.80295672-7.90016895.91907049-1.83527484 3.11956084-2.52976653 4.84706843-3.63715956 3.51255466-2.34871145 5.19774973-6.63321741 4.22714102-10.74724897-1.07337997-4.18613934-4.87876998-7.82915828-4.09550447-12.07921975.46202795-2.50699729 2.45773443-4.454203 3.29696664-6.86120298 1.00130606-2.87186006.24506082-6.07308054-1.00208727-8.84694814-1.24714808-2.7738676-2.97216893-5.32673154-4.0357987-8.17607297-.49847088-1.12443147-.67084992-2.36646193-.49745067-3.58424613.53661246-2.56874752 3.42280675-3.9162379 6.02870833-4.21351493 2.60590159-.29727703 5.3379832.03893922 7.77947327-.91966016 2.26258149-.88835245 5.04997979-3.7263391 4.63942808-6.40011391-.387026-2.52059559-3.91990558-4.43524653-5.8843518-5.5977965-5.92060941-3.50384374-13.06836558-4.52900258-19.84101663-4.67919246z"/>
      <path fill="rgb(47,46,65)" fill-rule="evenodd" d="M105.83273954 168.46613184l.53670787-6.46799203s-.49501164-.53104363-1.3477331-1.49169558h42.3402877l-1.6339773 9.24851259c2.99960066.18497025-.94818391-1.1157883.29817104-.29833912-10.48960353-.89501735-29.33997668-.94871839-40.19345621-.99048586z"/>
      <g opacity=".1">
        <path fill="rgb(0,0,0)" fill-rule="evenodd" d="M163.20686475 234.57807987l-8.53369095.8114824-8.9451312-65.63460545c2.99960066.18497025 4.93771242.84728309 6.18406737 1.66473226 2.7252833 1.77810113 2.16472175 4.30205005 2.16472175 4.30205005l9.13003303 58.85634074z"/>
      </g>
      <path fill="rgb(63,61,86)" fill-rule="evenodd" d="M145.72811416 105.91038606l14.31220992 1.19335647 23.85368321 125.8991068-25.04636737 2.38671293-17.8902624-97.85522994 4.77073664-31.62394626z"/>
      <g opacity=".1">
        <path fill="rgb(0,0,0)" fill-rule="evenodd" d="M98.31891878 174.82672178l-12.22501265 58.17612756 10.43777543-58.17612756h1.78723722z"/>
      </g>
      <path fill="rgb(47,46,65)" fill-rule="evenodd" d="M163.618305 361.8853473l-15.50489408 2.38671293 1.78902624 19.0937034s-5.36707872 2.98339116-1.78902624 12.53024287c3.57805248 9.5468517 3.57805248 11.93356462 3.57805248 11.93356462l12.28345417-1.18938855c4.76020524-.460922 16.2011831-4.7540875 17.83182088-9.2524805.67644275-1.8660515-6.5431965-2.25411908-8.05061808-2.68505204-4.17439456-1.19335646-10.13781537-32.81730272-10.13781537-32.81730272z"/>
      <ellipse cx="139.466" cy="74.585" fill="rgb(255,184,184)" rx="1.789" ry="2.983" transform="rotate(-30.00001 139.46648061 74.58476145)"/>
      <path fill="rgb(255,255,255)" fill-rule="evenodd" d="M350.57158295 37.97689276c-11.1790912-11.1815652-29.30040016-11.18001384-40.47757884.00346529-11.17717868 11.18347912-11.17872918 29.31500286-.00346334 40.50039558l40.48104218 40.50386087 40.48104218-40.50386087c11.17526584-11.18539272 11.17371535-29.31691646-.00346334-40.50039558-11.17717868-11.18347913-29.29848764-11.1850305-40.47757884-.0034653z"/>
    </g>
  </g>
</svg>
