<?xml version="1.0" encoding="utf-8"?>
<!-- Generator: Adobe Illustrator 24.1.3, SVG Export Plug-In . SVG Version: 6.00 Build 0)  -->
<svg version="1.1" id="Layer_1" xmlns="http://www.w3.org/2000/svg" xmlns:xlink="http://www.w3.org/1999/xlink" x="0px" y="0px"
	 viewBox="0 0 789 287" style="enable-background:new 0 0 789 287;" xml:space="preserve">
<style type="text/css">
	.st0{fill:#FFFFFF;}
	.st1{fill:#797EF4;}
</style>
<g>
	<g>
		<path class="st0" d="M323.7,55.8h13.4L353.8,91l32.8-35.2h13.6L386,128.7h-15.6l8.8-45.6l-29.6,31.3l-15.3-30.9l-8.8,45.2h-15.8
			L323.7,55.8z"/>
		<path class="st0" d="M403.2,104.5c0-17.8,11.3-33.2,28.5-33.2c7.4,0,14,2.8,17.8,8.8l1.6-7.7h15l-10.9,56.3H441l1.1-6.1
			c-3.7,5-9.7,7.3-16.4,7.3C412.2,130,403.2,118.6,403.2,104.5z M445.5,98.6c0-7.3-4.5-13.3-12-13.3c-8.9,0-15.1,7.3-15.1,17.2
			c0,8,5.3,13.4,12.3,13.4C439.8,115.9,445.5,107.6,445.5,98.6z"/>
		<path class="st0" d="M477.6,72.5h14.7l-1.5,7.7c5.2-6.1,12.5-8.8,19.1-8.8c12.7,0,16.7,7.5,16.8,15.8c0,2.7-0.8,7.7-1.4,10.7
			l-6,30.9h-15.1l5.9-29.5c0.3-1.7,0.7-4.6,0.7-6.2c0-3.7-1.6-7.4-8.2-7.4c-7.8,0-14,6.2-15.5,14.6l-5.4,28.5h-15.1L477.6,72.5z"/>
		<path class="st0" d="M533.9,104.5c0-17.8,11.3-33.2,28.5-33.2c7.4,0,14.1,2.9,17.7,9.1l5.2-25.8h15l-14.4,74.1h-14.1l1.2-6.5
			c-4.1,5.6-10.4,7.8-16.5,7.8C542.8,130,533.9,118.6,533.9,104.5z M576.3,98.6c0-7.3-4.4-13.3-12-13.3c-8.9,0-15.1,7.3-15.1,17.2
			c0,8,5.3,13.4,12.3,13.4C570.6,115.9,576.3,107.6,576.3,98.6z"/>
		<path class="st0" d="M601.5,104.5c0-17.8,11.3-33.2,28.5-33.2c7.4,0,14,2.8,17.8,8.8l1.6-7.7h15l-10.9,56.3h-14.1l1.1-6.1
			c-3.7,5-9.7,7.3-16.4,7.3C610.5,130,601.5,118.6,601.5,104.5z M643.8,98.6c0-7.3-4.5-13.3-12-13.3c-8.9,0-15.1,7.3-15.1,17.2
			c0,8,5.3,13.4,12.3,13.4C638,115.9,643.8,107.6,643.8,98.6z"/>
	</g>
	<g>
		<path class="st0" d="M303.8,167.3h-27.6l2.9-15h72.7l-2.9,15h-27.6l-12.8,66.1H291L303.8,167.3z"/>
		<path class="st0" d="M352.4,170.8h16.5l-2.3,11.8c2.8-5.1,10.6-13,24.6-13l-3.5,18.3c-14.7,0-23.3,6.5-26.2,21.5l-4.5,24.1h-16.8
			L352.4,170.8z"/>
		<path class="st0" d="M393.8,206.5c0-19.8,12.5-37,31.7-37c8.3,0,15.5,3.1,19.8,9.8l1.8-8.5h16.7l-12.2,62.6h-15.7l1.3-6.8
			c-4.1,5.5-10.8,8.1-18.3,8.1C403.9,234.8,393.8,222.2,393.8,206.5z M440.9,199.9c0-8.1-5-14.8-13.4-14.8
			c-9.9,0-16.8,8.1-16.8,19.2c0,8.9,5.9,14.9,13.7,14.9C434.6,219.2,440.9,209.9,440.9,199.9z"/>
		<path class="st0" d="M476.6,170.8h16.5l-1.6,8.6c3.8-4.9,11.7-9.9,19.5-9.9c10.4,0,15.9,4.5,17.8,11.8c5.1-7,13.5-11.8,22.7-11.8
			c14.4,0,18.7,8.4,18.7,17.5c0,3.1-0.8,8.3-1.5,11.9l-6.6,34.5h-16.7l6.3-32.8c0.4-1.9,1-5.3,1-7c0-4-1.9-8.1-9.1-8.1
			c-8,0-13.8,6-15.5,14.8l-6.4,33.2h-16.8l6.4-32.8c0.4-1.9,0.9-5.3,0.9-7.1c0-4-1.8-8-9-8c-7.9,0-13.8,6.9-15.5,15.8l-6.3,32.2
			h-16.8L476.6,170.8z"/>
		<path class="st0" d="M586.3,170.8h15.7l-1.4,7.3c4.5-5.9,11.5-8.5,18.4-8.5c15.7,0,26.2,12.5,26.2,28.2
			c0,19.8-12.7,37.1-32.3,37.1c-8.4,0-15.9-3.3-20.2-10.3l-5.4,26.9h-16.7L586.3,170.8z M628.1,200c0-8.9-6.3-14.9-14.4-14.9
			c-10.5,0-16.9,9.3-16.9,19.3c0,8.1,5.4,14.8,14.3,14.8C621.1,219.2,628.1,211,628.1,200z"/>
		<path class="st0" d="M653.8,204.9c0-20.3,14.5-35.3,34.6-35.3c19.2,0,32.6,12.5,32.6,30.1c0,20-14.5,35.2-34.5,35.2
			C667.3,234.8,653.8,222.2,653.8,204.9z M703.6,200.5c0-8.4-6-15.4-15.4-15.4c-10,0-17.3,8.3-17.3,18.7c0,8.5,5.8,15.4,15.5,15.4
			C696.6,219.2,703.6,210.9,703.6,200.5z"/>
	</g>
	<path class="st1" d="M267.7,115.2c0-15.9-6.2-30.8-17.4-42c-11.2-11.2-26.1-17.4-42-17.4c-15.9,0-30.8,6.2-42,17.4l-3,3l-3-3
		c-11.2-11.2-26.1-17.4-42-17.4c-15.9,0-30.8,6.2-42,17.4C65.2,84.5,59,99.4,59,115.2c0,15.9,6.2,30.8,17.4,42l1.8,1.8
		c0.1,0.2,0.3,0.5,0.5,0.7l20.9,20.9c0.6,0.6,1.4,0.9,2.3,0.9c0.1,0,0.3,0,0.4,0c1-0.1,1.9-0.7,2.4-1.5c0,0,0.5-0.8,1.3-2l18.6,18.2
		c-0.5,4,0,7.4,1.5,10c1.5,2.5,3.8,4.3,6.8,5.1c1.2,0.3,2.5,0.5,3.7,0.5c0.6,0,1.3,0,1.9-0.1c0.8,6.8,5.6,9,8,9.7
		c1.2,0.3,2.3,0.5,3.5,0.5c0.9,0,1.8-0.1,2.8-0.3c0.2,7.9,5.5,10.4,8.1,11.1c1.1,0.3,2.3,0.5,3.5,0.5c3.3,0,6.6-1.2,9.3-3.5
		c0.4-0.4,0.8-0.8,1.2-1.1c2,0.4,3.8,0.7,5.4,0.7c3.4,0,6.1-0.9,8.2-2.7c2.3-1.9,3.3-4.5,3.7-6.8c0.6,0.1,1.2,0.1,1.8,0.1
		c0.6,0,1.3,0,1.9-0.1c4.3-0.7,6.4-3,7.3-4.8c1.4-2.7,1.4-5.9,0.9-8.7c0.2,0,0.4,0,0.7,0c0.9,0,1.9-0.1,2.8-0.4c3.2-0.8,5.7-3,7-5.9
		c2.3-5.2-0.2-10.6-2.1-13.7l8.1-8.3c0.9,1.3,1.4,2.1,1.4,2.2c0.5,0.8,1.4,1.4,2.4,1.5c0.1,0,0.3,0,0.4,0c0.8,0,1.7-0.3,2.3-0.9
		l20.9-20.9c0.2-0.2,0.4-0.5,0.5-0.7l1.8-1.8C261.5,146,267.7,131.1,267.7,115.2z M80.9,77.8c10-10,23.3-15.5,37.4-15.5
		c14.1,0,27.4,5.5,37.4,15.5l5.3,5.3c0,0,0,0,0,0c0,0,0,0,0,0l0,0c0,0,0.1,0.1,0.1,0.1c0,0,0.1,0.1,0.1,0.1c0,0,0.1,0.1,0.1,0.1
		c0,0,0.1,0.1,0.1,0.1c0,0,0.1,0,0.1,0.1c0.1,0,0.1,0.1,0.2,0.1c0,0,0.1,0,0.1,0.1c0.1,0,0.1,0.1,0.2,0.1c0,0,0.1,0,0.1,0
		c0.1,0,0.1,0,0.2,0.1c0,0,0.1,0,0.1,0c0.1,0,0.1,0,0.2,0c0.1,0,0.1,0,0.2,0c0,0,0.1,0,0.1,0c0.1,0,0.1,0,0.2,0c0,0,0.1,0,0.1,0
		c0.1,0,0.1,0,0.2,0c0,0,0.1,0,0.1,0c0.1,0,0.1,0,0.2,0c0,0,0.1,0,0.1,0c0.1,0,0.1,0,0.2,0c0,0,0.1,0,0.1,0c0.1,0,0.1,0,0.2-0.1
		c0,0,0.1,0,0.1,0c0.1,0,0.1-0.1,0.2-0.1c0,0,0.1,0,0.1,0c0.1,0,0.1-0.1,0.2-0.1c0,0,0.1,0,0.1-0.1c0,0,0.1-0.1,0.1-0.1
		c0,0,0.1-0.1,0.1-0.1c0,0,0.1-0.1,0.1-0.1c0,0,0.1-0.1,0.1-0.1l5.3-5.3c10-10,23.3-15.5,37.4-15.5c14.1,0,27.4,5.5,37.4,15.5
		c10,10,15.5,23.3,15.5,37.4c0,13.9-5.3,27-15,36.9c-8.7-13.4-19-22.9-26.3-28.8c-8.6-6.9-15.1-10.2-15.4-10.3
		c-1.3-0.6-2.8-0.4-3.8,0.6l-22.4,23.2c-0.8,0.8-1.1,2.1-0.8,3.2c0.1,0.5,0.4,0.9,0.7,1.2l-0.8,1l-15.3-1.2
		c-4.4-0.3-8.8,1.3-11.9,4.4c-0.1,0.1-0.2,0.2-0.2,0.2c-1.7-0.7-3.2-2-4.5-3.3c0.3-0.1,0.6-0.1,0.9-0.2c1.2-0.2,2.1-1.1,2.4-2.2
		c0.4-1.1,0.1-2.4-0.8-3.2l-22.4-23.2c-1-1-2.5-1.3-3.8-0.6c-0.3,0.1-6.7,3.4-15.4,10.3c-7.3,5.8-17.5,15.4-26.3,28.8
		C60.3,131.5,60.5,98.3,80.9,77.8z M101.2,173.1l-14.4-14.4c-0.1-0.3-0.3-0.5-0.6-0.7l-1.2-1.2c8.4-13.2,18.4-22.6,25.5-28.3
		c5.4-4.3,9.9-7.1,12.4-8.6l16.9,17.6c-0.2,0.1-0.4,0.2-0.7,0.3c-0.1,0-0.3,0.1-0.4,0.2C121.5,145,106.7,165,101.2,173.1z
		 M134.5,205c-1.3-0.4-4.7-1.3-3.7-8.4c1.8-1.7,7.3-6.2,12.6-4.5c1.4,0.5,2.5,1.8,2.6,3.2c0.2,2.8-1.1,5.4-3.8,7.8
		c-0.5,0.5-1.1,0.8-1.7,1.2c-0.2,0.1-0.3,0.2-0.5,0.2C138.2,205.3,136.3,205.5,134.5,205z M148.1,215c-1.1-0.3-3.6-1-3.4-5.9
		c0.6-0.4,1.1-0.8,1.6-1.2c1.4-1.2,2.6-2.5,3.4-3.7c2.4-1.1,4.6-1.3,6.5-0.7c1.2,0.4,2.1,1.5,2.2,2.8c0.2,2.5-1,4.9-3.4,7
		C153,215,150.4,215.7,148.1,215z M169.4,224.6c-2,1.7-4.6,2.4-6.9,1.8c-1.1-0.3-4.1-1.1-3.2-7.5c1.7-1.6,6.7-5.6,11.4-4
		c1.2,0.4,2.1,1.5,2.2,2.8C173.1,220.1,171.9,222.5,169.4,224.6z M208.9,197.1c-0.7,1.5-2,2.1-2.7,2.3c-1.4,0.4-3,0.1-4.2-0.8
		l-22.7-17.3c-1.4-1.1-3.4-0.8-4.5,0.6c-1.1,1.4-0.8,3.4,0.6,4.5l21.2,16.1c1,2.4,2.3,6.9,1.1,9.1c-0.2,0.3-0.6,1.2-2.6,1.5
		c-1.4,0.2-2.9-0.1-4.3-0.7c-0.1,0-0.2-0.1-0.3-0.1c-0.5-0.3-0.9-0.6-1.3-0.9l-20.4-17c-1.4-1.1-3.4-0.9-4.5,0.4
		c-1.1,1.4-0.9,3.4,0.4,4.5l20.4,17c0.3,0.3,0.6,0.5,1,0.7c-0.1,1.3-0.4,3.2-1.8,4.4c-1.2,1-3.1,1.4-5.7,1.1c0.7-2,0.8-3.9,0.7-5.4
		c-0.3-3.9-2.9-7.2-6.7-8.4c-2.7-0.9-5.4-0.8-7.8-0.2c0.1-0.9,0.1-1.8,0.1-2.6c-0.3-3.9-2.9-7.2-6.7-8.4c-1.9-0.6-3.8-0.8-5.8-0.6
		c0-0.7,0-1.4,0-2c-0.3-4.1-3-7.6-7-8.9c-7.4-2.4-14.1,1.8-17.6,4.6l-18.4-18c6.1-8.4,17.3-21.8,29.6-27.8c1.4,1.7,3.5,4,6.2,5.6
		c-3.7,3.5-7.9,7.3-11,9.6c-1.5,1.1-2.4,2.8-2.4,4.6c0,1.8,0.8,3.5,2.3,4.7c4.2,3.3,15.2,9.5,28.1-1c1.4,0.8,3.5,1.8,5.9,2.5
		c5.7,1.6,11.3,1,16.3-1.6l21.7,18.8C207.5,189.5,210.2,194,208.9,197.1z M208.3,181.3l-21.4-18.5c-1.1-1-2.7-1-3.9-0.2
		c-9.4,6.4-18.7-0.5-19.1-0.8c-1.2-1-3-0.9-4.1,0.2c-8.9,8.2-16.3,6.2-21.1,2.7c4.3-3.2,10-8.6,14.6-13.1c0,0,0,0,0,0
		c0.6-0.5,1.1-1.1,1.6-1.6c1.8-1.8,4.4-2.7,6.9-2.5l17.1,1.3c1.1,0.1,2.2-0.4,2.8-1.3l3-4c13.3,5,25.6,19.7,32.3,28.8L208.3,181.3z
		 M225.4,173.1c-5.6-8.3-20.8-29-38.6-35.6l16.9-17.6c6,3.5,24.2,15.3,37.9,36.9l-1.2,1.2c-0.2,0.2-0.4,0.5-0.5,0.7L225.4,173.1z"/>
	<g>
		<g>
			<g>
				<path class="st1" d="M717.1,97.9c-0.1-1.8-1-3.4-2.4-4.5l-17-13.7c-1.1-0.9-2.6-1.4-4-1.4c-1.9,0-3.8,0.9-5,2.4
					c-2.2,2.7-1.8,6.8,0.9,9l11.7,9.5L689,112.6c-2.4,2.6-2.2,6.7,0.4,9c1.2,1.1,2.7,1.7,4.3,1.7c1.8,0,3.5-0.8,4.7-2.1l17-18.6
					C716.6,101.4,717.2,99.6,717.1,97.9z M712.8,100.2l-17,18.6c-0.9,1-2.9,1.1-3.9,0.2c-1.1-1-1.2-2.8-0.2-3.9l15-16.4L692,86.8
					c-1.2-1-1.4-2.7-0.4-3.9c0.5-0.6,1.3-1,2.1-1c0.6,0,1.2,0.2,1.7,0.6l17,13.7c0.6,0.5,1,1.2,1,1.9
					C713.5,98.9,713.3,99.7,712.8,100.2z"/>
				<path class="st1" d="M742.6,93.4l-17-13.7c-1.1-0.9-2.6-1.4-4-1.4c-1.9,0-3.8,0.9-5,2.4c-2.2,2.7-1.8,6.8,0.9,9l11.7,9.5
					l-12.4,13.6c-1.2,1.3-1.7,2.9-1.7,4.6c0.1,1.7,0.8,3.3,2.1,4.4c1.2,1.1,2.7,1.7,4.3,1.7c1.8,0,3.5-0.8,4.7-2.1l17-18.6
					c1.2-1.3,1.8-3,1.7-4.8C744.9,96.1,744,94.5,742.6,93.4z M740.6,100.2l-17,18.6c-0.9,1-2.9,1.1-3.9,0.2
					c-0.5-0.5-0.9-1.2-0.9-1.9s0.2-1.4,0.7-2l15-16.4l-14.7-11.9c-1.2-1-1.4-2.7-0.4-3.9c0.5-0.6,1.3-1,2.1-1c0.6,0,1.2,0.2,1.7,0.6
					l17,13.7c0.6,0.5,1,1.2,1,1.9C741.4,98.9,741.1,99.6,740.6,100.2z"/>
			</g>
		</g>
	</g>
</g>
</svg>
