<?xml version="1.0" encoding="utf-8"?>
<!-- Generator: Adobe Illustrator 24.2.1, SVG Export Plug-In . SVG Version: 6.00 Build 0)  -->
<svg version="1.1" id="WhatsApp_Logo" xmlns="http://www.w3.org/2000/svg" xmlns:xlink="http://www.w3.org/1999/xlink" x="0px"
	 y="0px" viewBox="0 0 30 30" style="enable-background:new 0 0 30 30;" xml:space="preserve">
<style type="text/css">
	.st0{fill-rule:evenodd;clip-rule:evenodd;fill:#898F9C;}
	.st1{fill:#898F9C;}
	.st2{fill:#FFFFFF;}
</style>
<g>
	<path class="st1" d="M15.6,4.8c3.4,0,3.8,0,5.2,0.1c1.3,0.1,1.9,0.3,2.4,0.4c0.6,0.2,1,0.5,1.5,1c0.4,0.4,0.7,0.9,1,1.5
		c0.2,0.5,0.4,1.1,0.4,2.4c0.1,1.4,0.1,1.8,0.1,5.2s0,3.8-0.1,5.2c-0.1,1.3-0.3,1.9-0.4,2.4c-0.2,0.6-0.5,1-1,1.5
		c-0.4,0.4-0.9,0.7-1.5,1c-0.5,0.2-1.1,0.4-2.4,0.4c-1.4,0.1-1.8,0.1-5.2,0.1s-3.8,0-5.2-0.1c-1.3-0.1-1.9-0.3-2.4-0.4
		c-0.6-0.2-1-0.5-1.5-1c-0.4-0.4-0.7-0.9-1-1.5c-0.2-0.5-0.4-1.1-0.4-2.4C5.1,19.1,5,18.7,5,15.3s0-3.8,0.1-5.2
		c0.1-1.3,0.3-1.9,0.4-2.4c0.2-0.6,0.5-1,1-1.5s0.9-0.7,1.5-1c0.5-0.2,1.1-0.4,2.4-0.4C11.8,4.8,12.2,4.8,15.6,4.8 M15.6,2.4
		c-3.5,0-3.9,0-5.3,0.1C8.9,2.6,8,2.8,7.2,3.1C6.3,3.4,5.6,3.9,4.9,4.6S3.7,6,3.4,6.9C3.1,7.7,2.9,8.6,2.8,10
		c-0.1,1.4-0.1,1.8-0.1,5.3s0,3.9,0.1,5.3c0.1,1.4,0.3,2.3,0.6,3.1c0.3,0.8,0.8,1.6,1.5,2.3c0.7,0.7,1.4,1.2,2.3,1.5
		c0.8,0.3,1.8,0.5,3.1,0.6c1.4,0.1,1.8,0.1,5.3,0.1s3.9,0,5.3-0.1c1.4-0.1,2.3-0.3,3.1-0.6c0.8-0.3,1.6-0.8,2.3-1.5
		c0.7-0.7,1.2-1.4,1.5-2.3c0.3-0.8,0.5-1.8,0.6-3.1c0.1-1.4,0.1-1.8,0.1-5.3s0-3.9-0.1-5.3c-0.1-1.4-0.3-2.3-0.6-3.1
		C27.5,6,27,5.3,26.3,4.6c-0.7-0.7-1.4-1.2-2.3-1.5c-0.8-0.3-1.8-0.5-3.1-0.6C19.5,2.4,19.1,2.4,15.6,2.4L15.6,2.4z"/>
	<path class="st1" d="M15.6,8.7c-3.6,0-6.6,3-6.6,6.6s3,6.6,6.6,6.6s6.6-3,6.6-6.6S19.2,8.7,15.6,8.7z M15.6,19.6
		c-2.4,0-4.3-1.9-4.3-4.3s1.9-4.3,4.3-4.3s4.3,1.9,4.3,4.3S18,19.6,15.6,19.6z"/>
	<circle class="st1" cx="22.5" cy="8.4" r="1.5"/>
</g>
</svg>
