<?xml version="1.0" encoding="utf-8"?>
<!-- Generator: Adobe Illustrator 24.2.1, SVG Export Plug-In . SVG Version: 6.00 Build 0)  -->
<svg version="1.1" id="WhatsApp_Logo" xmlns="http://www.w3.org/2000/svg" xmlns:xlink="http://www.w3.org/1999/xlink" x="0px"
	 y="0px" viewBox="0 0 30 30" style="enable-background:new 0 0 30 30;" xml:space="preserve">
<style type="text/css">
	.st0{fill-rule:evenodd;clip-rule:evenodd;fill:#898F9C;}
	.st1{fill:#898F9C;}
	.st2{fill:#FFFFFF;}
</style>
<path class="st1" d="M22.7,1.1H6.9c-3.1,0-5.6,2.5-5.6,5.6v15.7c0,3.1,2.5,5.6,5.6,5.6h15.7c3.1,0,5.6-2.5,5.6-5.6V6.7
	C28.3,3.6,25.8,1.1,22.7,1.1z M10.3,22.4H6.9V10.1h3.4V22.4z M8.6,8.6c-1.1,0-2-0.9-2-2s0.9-2,2-2s2,0.9,2,2S9.7,8.6,8.6,8.6z
	 M23.8,22.4h-3.4v-6.3c0-3.8-4.5-3.5-4.5,0v6.3h-3.4V10.1h3.4v2c1.6-2.9,7.9-3.1,7.9,2.8V22.4z"/>
</svg>
