<svg xmlns="http://www.w3.org/2000/svg" xmlns:xlink="http://www.w3.org/1999/xlink" width="181" height="16" viewBox="0 0 181 16">
  <defs>
    <rect id="rect-1" width="16" height="16" x="165" y="0"/>
    <mask id="mask-2" maskContentUnits="userSpaceOnUse" maskUnits="userSpaceOnUse">
      <rect width="181" height="16" x="0" y="0" fill="black"/>
      <use fill="white" xlink:href="#rect-1"/>
    </mask>
  </defs>
  <g>
    <text font-size="0" style="white-space:pre">
      <tspan x="0" y="15" fill="rgb(108,99,255)" font-family="Arial" font-size="20" font-weight="700" style="white-space:pre;text-transform:none">MANDATRAMPO</tspan>
    </text>
    <g>
      <use fill="none" xlink:href="#rect-1"/>
      <g mask="url(#mask-2)">
        <path fill="rgb(108,99,255)" fill-rule="evenodd" d="M176.5303955.875c1.23559571 0 2.37207032.49475098 3.2003174 1.3930664C180.54919433 3.1558838 181 4.36877442 181 5.6833496c0 1.3532715-.5041504 2.59191895-1.586792 3.89819337-.96850585 1.16870117-2.36047362 2.3548584-3.97216796 3.72827148-.55065918.46936035-1.17492676 1.00134278-1.8227539 1.5678711-.17089844.1496582-.390625.23217773-.61828614.23217773-.2277832 0-.4473877-.08251953-.61853027-.23242187-.64782715-.56640625-1.27172852-1.09814453-1.82214356-1.56726075-1.61193847-1.37365722-3.00390625-2.55993652-3.9724121-3.72851562C165.50427246 8.27526855 165 7.03662109 165 5.68347168c0-1.31469727.45080566-2.5275879 1.26916504-3.41540527C167.0974121 1.36975098 168.23400879.875 169.46960449.875c.92358399 0 1.76940918.29199219 2.51391602.86779785.37585449.29064942.71643066.6463623 1.01647949 1.0612793.3001709-.41503906.640625-.77062988 1.01635742-1.0612793C174.76098632 1.1669922 175.60681152.875 176.53039551.875z"/>
      </g>
    </g>
  </g>
</svg>
