<?xml version="1.0" encoding="utf-8"?>
<!-- Generator: Adobe Illustrator 24.2.1, SVG Export Plug-In . SVG Version: 6.00 Build 0)  -->
<svg version="1.1" id="WhatsApp_Logo" xmlns="http://www.w3.org/2000/svg" xmlns:xlink="http://www.w3.org/1999/xlink" x="0px"
	 y="0px" viewBox="0 0 30 30" style="enable-background:new 0 0 30 30;" xml:space="preserve">
<style type="text/css">
	.st0{fill-rule:evenodd;clip-rule:evenodd;fill:#898F9C;}
	.st1{fill:#898F9C;}
	.st2{fill:#FFFFFF;}
</style>
<g id="WA_Logo_1_">
	<g>
		<path class="st0" d="M24.4,5.2c-2.4-2.4-5.7-3.8-9.1-3.8C8.2,1.4,2.4,7.2,2.4,14.3c0,2.3,0.6,4.5,1.7,6.4l-1.8,6.7l6.8-1.8
			c1.9,1,4,1.6,6.2,1.6h0l0,0c7.1,0,12.9-5.8,12.9-12.9C28.2,10.9,26.8,7.6,24.4,5.2z M15.3,25L15.3,25c-1.9,0-3.8-0.5-5.5-1.5
			l-0.4-0.2l-4.1,1.1l1.1-4L6.2,20c-1.1-1.7-1.6-3.7-1.6-5.7c0-5.9,4.8-10.7,10.7-10.7c2.9,0,5.5,1.1,7.6,3.1c2,2,3.1,4.7,3.1,7.6
			C26,20.2,21.2,25,15.3,25z M21.2,17c-0.3-0.2-1.9-0.9-2.2-1.1c-0.3-0.1-0.5-0.2-0.7,0.2c-0.2,0.3-0.8,1.1-1,1.3
			c-0.2,0.2-0.4,0.2-0.7,0.1c-0.3-0.2-1.4-0.5-2.6-1.6c-1-0.9-1.6-1.9-1.8-2.2c-0.2-0.3,0-0.5,0.1-0.7c0.1-0.1,0.3-0.4,0.5-0.6
			s0.2-0.3,0.3-0.5c0.1-0.2,0.1-0.4,0-0.6c-0.1-0.2-0.7-1.7-1-2.4c-0.3-0.6-0.5-0.5-0.7-0.6c-0.2,0-0.4,0-0.6,0
			c-0.2,0-0.6,0.1-0.9,0.4c-0.3,0.3-1.1,1.1-1.1,2.7s1.2,3.1,1.3,3.3c0.2,0.2,2.3,3.5,5.5,4.9c0.8,0.3,1.4,0.5,1.8,0.7
			c0.8,0.2,1.5,0.2,2,0.1c0.6-0.1,1.9-0.8,2.2-1.5c0.3-0.8,0.3-1.4,0.2-1.5C21.7,17.2,21.5,17.2,21.2,17z"/>
	</g>
</g>
</svg>
