<?xml version="1.0" encoding="utf-8"?>
<!-- Generator: Adobe Illustrator 24.2.1, SVG Export Plug-In . SVG Version: 6.00 Build 0)  -->
<svg version="1.1" id="WhatsApp_Logo" xmlns="http://www.w3.org/2000/svg" xmlns:xlink="http://www.w3.org/1999/xlink" x="0px"
	 y="0px" viewBox="0 0 30 30" style="enable-background:new 0 0 30 30;" xml:space="preserve">
<style type="text/css">
	.st0{fill-rule:evenodd;clip-rule:evenodd;fill:#898F9C;}
	.st1{fill:#898F9C;}
	.st2{fill:#FFFFFF;}
</style>
<g>
	<path class="st1" d="M28.8,14.9c0-7.4-6-13.4-13.4-13.4S2,7.4,2,14.9c0,6.7,4.9,12.3,11.3,13.3v-9.4H9.9v-3.9h3.4v-3
		c0-3.4,2-5.2,5.1-5.2c1.5,0,3,0.3,3,0.3v3.3h-1.7c-1.7,0-2.2,1-2.2,2.1v2.5h3.7l-0.6,3.9h-3.1v9.4C23.9,27.1,28.8,21.6,28.8,14.9z"
		/>
	<path class="st2" d="M20.6,18.7l0.6-3.9h-3.7v-2.5c0-1.1,0.5-2.1,2.2-2.1h1.7V6.9c0,0-1.5-0.3-3-0.3c-3.1,0-5.1,1.9-5.1,5.2v3H9.9
		v3.9h3.4v9.4c0.7,0.1,1.4,0.2,2.1,0.2s1.4-0.1,2.1-0.2v-9.4H20.6z"/>
</g>
</svg>
