<?xml version="1.0" encoding="UTF-8" standalone="no"?>
<!-- Created with Inkscape (http://www.inkscape.org/) -->

<svg
   xmlns:dc="http://purl.org/dc/elements/1.1/"
   xmlns:cc="http://creativecommons.org/ns#"
   xmlns:rdf="http://www.w3.org/1999/02/22-rdf-syntax-ns#"
   xmlns:svg="http://www.w3.org/2000/svg"
   xmlns="http://www.w3.org/2000/svg"
   xmlns:sodipodi="http://sodipodi.sourceforge.net/DTD/sodipodi-0.dtd"
   xmlns:inkscape="http://www.inkscape.org/namespaces/inkscape"
   width="479"
   height="479"
   viewBox="0 0 126.73541 126.73542"
   version="1.1"
   id="svg8"
   inkscape:version="0.92.3 (2405546, 2018-03-11)"
   sodipodi:docname="logoBackground-bg.svg">
  <defs
     id="defs2" />
  <sodipodi:namedview
     id="base"
     pagecolor="#ffffff"
     bordercolor="#666666"
     borderopacity="1.0"
     inkscape:pageopacity="0.0"
     inkscape:pageshadow="2"
     inkscape:zoom="0.98994949"
     inkscape:cx="357.3255"
     inkscape:cy="189.62997"
     inkscape:document-units="mm"
     inkscape:current-layer="layer1"
     showgrid="false"
     units="px"
     fit-margin-right="-0.3"
     inkscape:window-width="1366"
     inkscape:window-height="741"
     inkscape:window-x="0"
     inkscape:window-y="0"
     inkscape:window-maximized="1" />
  <metadata
     id="metadata5">
    <rdf:RDF>
      <cc:Work
         rdf:about="">
        <dc:format>image/svg+xml</dc:format>
        <dc:type
           rdf:resource="http://purl.org/dc/dcmitype/StillImage" />
        <dc:title></dc:title>
      </cc:Work>
    </rdf:RDF>
  </metadata>
  <g
     inkscape:label="Camada 1"
     inkscape:groupmode="layer"
     id="layer1"
     transform="translate(0,-170.26457)">
    <rect
       id="rect421"
       width="128.28937"
       height="128.02209"
       x="-0.53454226"
       y="170.31424"
       style="stroke-width:0.26458332;fill:#191919;fill-opacity:1" />
    <g
       style=""
       id="g416"
       transform="matrix(0.16161009,0,0,0.19609984,-0.0566919,203.84775)">
      <rect
         id="rect345"
         height="287"
         width="789"
         class="st0"
         y="0"
         x="0"
         style="fill:#191919" />
      <g
         id="g385">
	<g
   id="g357">
		<path
   id="path347"
   d="m 323.7,55.8 h 13.4 L 353.8,91 386.6,55.8 h 13.6 L 386,128.7 h -15.6 l 8.8,-45.6 -29.6,31.3 -15.3,-30.9 -8.8,45.2 h -15.8 z"
   class="st1"
   inkscape:connector-curvature="0"
   style="fill:#ffffff" />

		<path
   id="path349"
   d="m 403.2,104.5 c 0,-17.8 11.3,-33.2 28.5,-33.2 7.4,0 14,2.8 17.8,8.8 l 1.6,-7.7 h 15 l -10.9,56.3 H 441 l 1.1,-6.1 c -3.7,5 -9.7,7.3 -16.4,7.3 -13.5,0.1 -22.5,-11.3 -22.5,-25.4 z m 42.3,-5.9 c 0,-7.3 -4.5,-13.3 -12,-13.3 -8.9,0 -15.1,7.3 -15.1,17.2 0,8 5.3,13.4 12.3,13.4 9.1,0 14.8,-8.3 14.8,-17.3 z"
   class="st1"
   inkscape:connector-curvature="0"
   style="fill:#ffffff" />

		<path
   id="path351"
   d="m 477.6,72.5 h 14.7 l -1.5,7.7 c 5.2,-6.1 12.5,-8.8 19.1,-8.8 12.7,0 16.7,7.5 16.8,15.8 0,2.7 -0.8,7.7 -1.4,10.7 l -6,30.9 h -15.1 l 5.9,-29.5 c 0.3,-1.7 0.7,-4.6 0.7,-6.2 0,-3.7 -1.6,-7.4 -8.2,-7.4 -7.8,0 -14,6.2 -15.5,14.6 l -5.4,28.5 h -15.1 z"
   class="st1"
   inkscape:connector-curvature="0"
   style="fill:#ffffff" />

		<path
   id="path353"
   d="m 533.9,104.5 c 0,-17.8 11.3,-33.2 28.5,-33.2 7.4,0 14.1,2.9 17.7,9.1 l 5.2,-25.8 h 15 l -14.4,74.1 h -14.1 l 1.2,-6.5 c -4.1,5.6 -10.4,7.8 -16.5,7.8 -13.7,0 -22.6,-11.4 -22.6,-25.5 z m 42.4,-5.9 c 0,-7.3 -4.4,-13.3 -12,-13.3 -8.9,0 -15.1,7.3 -15.1,17.2 0,8 5.3,13.4 12.3,13.4 9.1,0 14.8,-8.3 14.8,-17.3 z"
   class="st1"
   inkscape:connector-curvature="0"
   style="fill:#ffffff" />

		<path
   id="path355"
   d="m 601.5,104.5 c 0,-17.8 11.3,-33.2 28.5,-33.2 7.4,0 14,2.8 17.8,8.8 l 1.6,-7.7 h 15 l -10.9,56.3 h -14.1 l 1.1,-6.1 c -3.7,5 -9.7,7.3 -16.4,7.3 -13.6,0.1 -22.6,-11.3 -22.6,-25.4 z m 42.3,-5.9 c 0,-7.3 -4.5,-13.3 -12,-13.3 -8.9,0 -15.1,7.3 -15.1,17.2 0,8 5.3,13.4 12.3,13.4 9,0 14.8,-8.3 14.8,-17.3 z"
   class="st1"
   inkscape:connector-curvature="0"
   style="fill:#ffffff" />

	</g>

	<g
   id="g371">
		<path
   id="path359"
   d="m 303.8,167.3 h -27.6 l 2.9,-15 h 72.7 l -2.9,15 h -27.6 l -12.8,66.1 H 291 Z"
   class="st1"
   inkscape:connector-curvature="0"
   style="fill:#ffffff" />

		<path
   id="path361"
   d="m 352.4,170.8 h 16.5 l -2.3,11.8 c 2.8,-5.1 10.6,-13 24.6,-13 l -3.5,18.3 c -14.7,0 -23.3,6.5 -26.2,21.5 l -4.5,24.1 h -16.8 z"
   class="st1"
   inkscape:connector-curvature="0"
   style="fill:#ffffff" />

		<path
   id="path363"
   d="m 393.8,206.5 c 0,-19.8 12.5,-37 31.7,-37 8.3,0 15.5,3.1 19.8,9.8 l 1.8,-8.5 h 16.7 l -12.2,62.6 h -15.7 l 1.3,-6.8 c -4.1,5.5 -10.8,8.1 -18.3,8.1 -15,0.1 -25.1,-12.5 -25.1,-28.2 z m 47.1,-6.6 c 0,-8.1 -5,-14.8 -13.4,-14.8 -9.9,0 -16.8,8.1 -16.8,19.2 0,8.9 5.9,14.9 13.7,14.9 10.2,0 16.5,-9.3 16.5,-19.3 z"
   class="st1"
   inkscape:connector-curvature="0"
   style="fill:#ffffff" />

		<path
   id="path365"
   d="m 476.6,170.8 h 16.5 l -1.6,8.6 c 3.8,-4.9 11.7,-9.9 19.5,-9.9 10.4,0 15.9,4.5 17.8,11.8 5.1,-7 13.5,-11.8 22.7,-11.8 14.4,0 18.7,8.4 18.7,17.5 0,3.1 -0.8,8.3 -1.5,11.9 l -6.6,34.5 h -16.7 l 6.3,-32.8 c 0.4,-1.9 1,-5.3 1,-7 0,-4 -1.9,-8.1 -9.1,-8.1 -8,0 -13.8,6 -15.5,14.8 l -6.4,33.2 h -16.8 l 6.4,-32.8 c 0.4,-1.9 0.9,-5.3 0.9,-7.1 0,-4 -1.8,-8 -9,-8 -7.9,0 -13.8,6.9 -15.5,15.8 l -6.3,32.2 h -16.8 z"
   class="st1"
   inkscape:connector-curvature="0"
   style="fill:#ffffff" />

		<path
   id="path367"
   d="M 586.3,170.8 H 602 l -1.4,7.3 c 4.5,-5.9 11.5,-8.5 18.4,-8.5 15.7,0 26.2,12.5 26.2,28.2 0,19.8 -12.7,37.1 -32.3,37.1 -8.4,0 -15.9,-3.3 -20.2,-10.3 l -5.4,26.9 h -16.7 z m 41.8,29.2 c 0,-8.9 -6.3,-14.9 -14.4,-14.9 -10.5,0 -16.9,9.3 -16.9,19.3 0,8.1 5.4,14.8 14.3,14.8 10,0 17,-8.2 17,-19.2 z"
   class="st1"
   inkscape:connector-curvature="0"
   style="fill:#ffffff" />

		<path
   id="path369"
   d="m 653.8,204.9 c 0,-20.3 14.5,-35.3 34.6,-35.3 19.2,0 32.6,12.5 32.6,30.1 0,20 -14.5,35.2 -34.5,35.2 -19.2,-0.1 -32.7,-12.7 -32.7,-30 z m 49.8,-4.4 c 0,-8.4 -6,-15.4 -15.4,-15.4 -10,0 -17.3,8.3 -17.3,18.7 0,8.5 5.8,15.4 15.5,15.4 10.2,0 17.2,-8.3 17.2,-18.7 z"
   class="st1"
   inkscape:connector-curvature="0"
   style="fill:#ffffff" />

	</g>

	<path
   id="path373"
   d="m 267.7,115.2 c 0,-15.9 -6.2,-30.8 -17.4,-42 -11.2,-11.2 -26.1,-17.4 -42,-17.4 -15.9,0 -30.8,6.2 -42,17.4 l -3,3 -3,-3 C 149.1,62 134.2,55.8 118.3,55.8 102.4,55.8 87.5,62 76.3,73.2 65.2,84.5 59,99.4 59,115.2 c 0,15.9 6.2,30.8 17.4,42 l 1.8,1.8 c 0.1,0.2 0.3,0.5 0.5,0.7 l 20.9,20.9 c 0.6,0.6 1.4,0.9 2.3,0.9 0.1,0 0.3,0 0.4,0 1,-0.1 1.9,-0.7 2.4,-1.5 0,0 0.5,-0.8 1.3,-2 l 18.6,18.2 c -0.5,4 0,7.4 1.5,10 1.5,2.5 3.8,4.3 6.8,5.1 1.2,0.3 2.5,0.5 3.7,0.5 0.6,0 1.3,0 1.9,-0.1 0.8,6.8 5.6,9 8,9.7 1.2,0.3 2.3,0.5 3.5,0.5 0.9,0 1.8,-0.1 2.8,-0.3 0.2,7.9 5.5,10.4 8.1,11.1 1.1,0.3 2.3,0.5 3.5,0.5 3.3,0 6.6,-1.2 9.3,-3.5 0.4,-0.4 0.8,-0.8 1.2,-1.1 2,0.4 3.8,0.7 5.4,0.7 3.4,0 6.1,-0.9 8.2,-2.7 2.3,-1.9 3.3,-4.5 3.7,-6.8 0.6,0.1 1.2,0.1 1.8,0.1 0.6,0 1.3,0 1.9,-0.1 4.3,-0.7 6.4,-3 7.3,-4.8 1.4,-2.7 1.4,-5.9 0.9,-8.7 0.2,0 0.4,0 0.7,0 0.9,0 1.9,-0.1 2.8,-0.4 3.2,-0.8 5.7,-3 7,-5.9 2.3,-5.2 -0.2,-10.6 -2.1,-13.7 l 8.1,-8.3 c 0.9,1.3 1.4,2.1 1.4,2.2 0.5,0.8 1.4,1.4 2.4,1.5 0.1,0 0.3,0 0.4,0 0.8,0 1.7,-0.3 2.3,-0.9 L 248,159.9 c 0.2,-0.2 0.4,-0.5 0.5,-0.7 l 1.8,-1.8 c 11.2,-11.4 17.4,-26.3 17.4,-42.2 z M 80.9,77.8 c 10,-10 23.3,-15.5 37.4,-15.5 14.1,0 27.4,5.5 37.4,15.5 l 5.3,5.3 c 0,0 0,0 0,0 0,0 0,0 0,0 v 0 c 0,0 0.1,0.1 0.1,0.1 0,0 0.1,0.1 0.1,0.1 0,0 0.1,0.1 0.1,0.1 0,0 0.1,0.1 0.1,0.1 0,0 0.1,0 0.1,0.1 0.1,0 0.1,0.1 0.2,0.1 0,0 0.1,0 0.1,0.1 0.1,0 0.1,0.1 0.2,0.1 0,0 0.1,0 0.1,0 0.1,0 0.1,0 0.2,0.1 0,0 0.1,0 0.1,0 0.1,0 0.1,0 0.2,0 0.1,0 0.1,0 0.2,0 0,0 0.1,0 0.1,0 0.1,0 0.1,0 0.2,0 0,0 0.1,0 0.1,0 0.1,0 0.1,0 0.2,0 0,0 0.1,0 0.1,0 0.1,0 0.1,0 0.2,0 0,0 0.1,0 0.1,0 0.1,0 0.1,0 0.2,0 0,0 0.1,0 0.1,0 0.1,0 0.1,0 0.2,-0.1 0,0 0.1,0 0.1,0 0.1,0 0.1,-0.1 0.2,-0.1 0,0 0.1,0 0.1,0 0.1,0 0.1,-0.1 0.2,-0.1 0,0 0.1,0 0.1,-0.1 0,0 0.1,-0.1 0.1,-0.1 0,0 0.1,-0.1 0.1,-0.1 0,0 0.1,-0.1 0.1,-0.1 0,0 0.1,-0.1 0.1,-0.1 l 5.3,-5.3 c 10,-10 23.3,-15.5 37.4,-15.5 14.1,0 27.4,5.5 37.4,15.5 10,10 15.5,23.3 15.5,37.4 0,13.9 -5.3,27 -15,36.9 -8.7,-13.4 -19,-22.9 -26.3,-28.8 -8.6,-6.9 -15.1,-10.2 -15.4,-10.3 -1.3,-0.6 -2.8,-0.4 -3.8,0.6 l -22.4,23.2 c -0.8,0.8 -1.1,2.1 -0.8,3.2 0.1,0.5 0.4,0.9 0.7,1.2 l -0.8,1 -15.3,-1.2 c -4.4,-0.3 -8.8,1.3 -11.9,4.4 -0.1,0.1 -0.2,0.2 -0.2,0.2 -1.7,-0.7 -3.2,-2 -4.5,-3.3 0.3,-0.1 0.6,-0.1 0.9,-0.2 1.2,-0.2 2.1,-1.1 2.4,-2.2 0.4,-1.1 0.1,-2.4 -0.8,-3.2 l -22.4,-23.2 c -1,-1 -2.5,-1.3 -3.8,-0.6 -0.3,0.1 -6.7,3.4 -15.4,10.3 -7.3,5.8 -17.5,15.4 -26.3,28.8 -19.6,-20.6 -19.4,-53.8 1,-74.3 z m 20.3,95.3 -14.4,-14.4 c -0.1,-0.3 -0.3,-0.5 -0.6,-0.7 L 85,156.8 c 8.4,-13.2 18.4,-22.6 25.5,-28.3 5.4,-4.3 9.9,-7.1 12.4,-8.6 l 16.9,17.6 c -0.2,0.1 -0.4,0.2 -0.7,0.3 -0.1,0 -0.3,0.1 -0.4,0.2 -17.2,7 -32,27 -37.5,35.1 z m 33.3,31.9 c -1.3,-0.4 -4.7,-1.3 -3.7,-8.4 1.8,-1.7 7.3,-6.2 12.6,-4.5 1.4,0.5 2.5,1.8 2.6,3.2 0.2,2.8 -1.1,5.4 -3.8,7.8 -0.5,0.5 -1.1,0.8 -1.7,1.2 -0.2,0.1 -0.3,0.2 -0.5,0.2 -1.8,0.8 -3.7,1 -5.5,0.5 z m 13.6,10 c -1.1,-0.3 -3.6,-1 -3.4,-5.9 0.6,-0.4 1.1,-0.8 1.6,-1.2 1.4,-1.2 2.6,-2.5 3.4,-3.7 2.4,-1.1 4.6,-1.3 6.5,-0.7 1.2,0.4 2.1,1.5 2.2,2.8 0.2,2.5 -1,4.9 -3.4,7 -2,1.7 -4.6,2.4 -6.9,1.7 z m 21.3,9.6 c -2,1.7 -4.6,2.4 -6.9,1.8 -1.1,-0.3 -4.1,-1.1 -3.2,-7.5 1.7,-1.6 6.7,-5.6 11.4,-4 1.2,0.4 2.1,1.5 2.2,2.8 0.2,2.4 -1,4.8 -3.5,6.9 z m 39.5,-27.5 c -0.7,1.5 -2,2.1 -2.7,2.3 -1.4,0.4 -3,0.1 -4.2,-0.8 l -22.7,-17.3 c -1.4,-1.1 -3.4,-0.8 -4.5,0.6 -1.1,1.4 -0.8,3.4 0.6,4.5 l 21.2,16.1 c 1,2.4 2.3,6.9 1.1,9.1 -0.2,0.3 -0.6,1.2 -2.6,1.5 -1.4,0.2 -2.9,-0.1 -4.3,-0.7 -0.1,0 -0.2,-0.1 -0.3,-0.1 -0.5,-0.3 -0.9,-0.6 -1.3,-0.9 l -20.4,-17 c -1.4,-1.1 -3.4,-0.9 -4.5,0.4 -1.1,1.4 -0.9,3.4 0.4,4.5 l 20.4,17 c 0.3,0.3 0.6,0.5 1,0.7 -0.1,1.3 -0.4,3.2 -1.8,4.4 -1.2,1 -3.1,1.4 -5.7,1.1 0.7,-2 0.8,-3.9 0.7,-5.4 -0.3,-3.9 -2.9,-7.2 -6.7,-8.4 -2.7,-0.9 -5.4,-0.8 -7.8,-0.2 0.1,-0.9 0.1,-1.8 0.1,-2.6 -0.3,-3.9 -2.9,-7.2 -6.7,-8.4 -1.9,-0.6 -3.8,-0.8 -5.8,-0.6 0,-0.7 0,-1.4 0,-2 -0.3,-4.1 -3,-7.6 -7,-8.9 -7.4,-2.4 -14.1,1.8 -17.6,4.6 l -18.4,-18 c 6.1,-8.4 17.3,-21.8 29.6,-27.8 1.4,1.7 3.5,4 6.2,5.6 -3.7,3.5 -7.9,7.3 -11,9.6 -1.5,1.1 -2.4,2.8 -2.4,4.6 0,1.8 0.8,3.5 2.3,4.7 4.2,3.3 15.2,9.5 28.1,-1 1.4,0.8 3.5,1.8 5.9,2.5 5.7,1.6 11.3,1 16.3,-1.6 l 21.7,18.8 c 1.4,1.5 4.1,6 2.8,9.1 z m -0.6,-15.8 -21.4,-18.5 c -1.1,-1 -2.7,-1 -3.9,-0.2 -9.4,6.4 -18.7,-0.5 -19.1,-0.8 -1.2,-1 -3,-0.9 -4.1,0.2 -8.9,8.2 -16.3,6.2 -21.1,2.7 4.3,-3.2 10,-8.6 14.6,-13.1 0,0 0,0 0,0 0.6,-0.5 1.1,-1.1 1.6,-1.6 1.8,-1.8 4.4,-2.7 6.9,-2.5 l 17.1,1.3 c 1.1,0.1 2.2,-0.4 2.8,-1.3 l 3,-4 c 13.3,5 25.6,19.7 32.3,28.8 z m 17.1,-8.2 c -5.6,-8.3 -20.8,-29 -38.6,-35.6 l 16.9,-17.6 c 6,3.5 24.2,15.3 37.9,36.9 l -1.2,1.2 c -0.2,0.2 -0.4,0.5 -0.5,0.7 z"
   class="st2"
   inkscape:connector-curvature="0"
   style="fill:#797ef4" />

	<g
   id="g383">
		<g
   id="g381">
			<g
   id="g379">
				<path
   id="path375"
   d="m 717.1,97.9 c -0.1,-1.8 -1,-3.4 -2.4,-4.5 l -17,-13.7 c -1.1,-0.9 -2.6,-1.4 -4,-1.4 -1.9,0 -3.8,0.9 -5,2.4 -2.2,2.7 -1.8,6.8 0.9,9 l 11.7,9.5 -12.3,13.4 c -2.4,2.6 -2.2,6.7 0.4,9 1.2,1.1 2.7,1.7 4.3,1.7 1.8,0 3.5,-0.8 4.7,-2.1 l 17,-18.6 c 1.2,-1.2 1.8,-3 1.7,-4.7 z m -4.3,2.3 -17,18.6 c -0.9,1 -2.9,1.1 -3.9,0.2 -1.1,-1 -1.2,-2.8 -0.2,-3.9 L 706.7,98.7 692,86.8 c -1.2,-1 -1.4,-2.7 -0.4,-3.9 0.5,-0.6 1.3,-1 2.1,-1 0.6,0 1.2,0.2 1.7,0.6 l 17,13.7 c 0.6,0.5 1,1.2 1,1.9 0.1,0.8 -0.1,1.6 -0.6,2.1 z"
   class="st2"
   inkscape:connector-curvature="0"
   style="fill:#797ef4" />

				<path
   id="path377"
   d="m 742.6,93.4 -17,-13.7 c -1.1,-0.9 -2.6,-1.4 -4,-1.4 -1.9,0 -3.8,0.9 -5,2.4 -2.2,2.7 -1.8,6.8 0.9,9 l 11.7,9.5 -12.4,13.6 c -1.2,1.3 -1.7,2.9 -1.7,4.6 0.1,1.7 0.8,3.3 2.1,4.4 1.2,1.1 2.7,1.7 4.3,1.7 1.8,0 3.5,-0.8 4.7,-2.1 l 17,-18.6 c 1.2,-1.3 1.8,-3 1.7,-4.8 0,-1.9 -0.9,-3.5 -2.3,-4.6 z m -2,6.8 -17,18.6 c -0.9,1 -2.9,1.1 -3.9,0.2 -0.5,-0.5 -0.9,-1.2 -0.9,-1.9 0,-0.7 0.2,-1.4 0.7,-2 l 15,-16.4 -14.7,-11.9 c -1.2,-1 -1.4,-2.7 -0.4,-3.9 0.5,-0.6 1.3,-1 2.1,-1 0.6,0 1.2,0.2 1.7,0.6 l 17,13.7 c 0.6,0.5 1,1.2 1,1.9 0.2,0.8 -0.1,1.5 -0.6,2.1 z"
   class="st2"
   inkscape:connector-curvature="0"
   style="fill:#797ef4" />

			</g>

		</g>

	</g>

</g>
    </g>
  </g>
  <style
     id="style343"
     type="text/css">
	.st0{fill:#191919;}
	.st1{fill:#FFFFFF;}
	.st2{fill:#797EF4;}
</style>
</svg>
