<?xml version="1.0" encoding="UTF-8" standalone="no"?>
<!-- Generator: Adobe Illustrator 24.2.1, SVG Export Plug-In . SVG Version: 6.00 Build 0)  -->

<svg
   xmlns:dc="http://purl.org/dc/elements/1.1/"
   xmlns:cc="http://creativecommons.org/ns#"
   xmlns:rdf="http://www.w3.org/1999/02/22-rdf-syntax-ns#"
   xmlns:svg="http://www.w3.org/2000/svg"
   xmlns="http://www.w3.org/2000/svg"
   xmlns:sodipodi="http://sodipodi.sourceforge.net/DTD/sodipodi-0.dtd"
   xmlns:inkscape="http://www.inkscape.org/namespaces/inkscape"
   version="1.1"
   id="Layer_1"
   x="0px"
   y="0px"
   viewBox="0 0 641.9 250.3"
   xml:space="preserve"
   sodipodi:docname="logoMT.svg"
   width="641.90002"
   height="250.29999"
   inkscape:version="0.92.3 (2405546, 2018-03-11)"><metadata
   id="metadata47"><rdf:RDF><cc:Work
       rdf:about=""><dc:format>image/svg+xml</dc:format><dc:type
         rdf:resource="http://purl.org/dc/dcmitype/StillImage" /><dc:title></dc:title></cc:Work></rdf:RDF></metadata><defs
   id="defs45" /><sodipodi:namedview
   pagecolor="#ffffff"
   bordercolor="#666666"
   borderopacity="1"
   objecttolerance="10"
   gridtolerance="10"
   guidetolerance="10"
   inkscape:pageopacity="0"
   inkscape:pageshadow="2"
   inkscape:window-width="1366"
   inkscape:window-height="741"
   id="namedview43"
   showgrid="false"
   inkscape:zoom="0.79287756"
   inkscape:cx="428.84576"
   inkscape:cy="49.19693"
   inkscape:window-x="0"
   inkscape:window-y="0"
   inkscape:window-maximized="1"
   inkscape:current-layer="Layer_1" />
<style
   type="text/css"
   id="style2">
	.st0{fill:#121212;}
	.st1{fill:#6C62FF;}
</style>
<g
   id="g14"
   transform="translate(-102,-104.99991)">
	<path
   class="st0"
   d="m 354.9,151.8 h 11.4 l 14.1,29.9 27.8,-29.9 h 11.6 l -12,62 h -13.3 l 7.5,-38.7 -25.1,26.6 -13,-26.3 -7.5,38.4 H 343 Z"
   id="path4"
   inkscape:connector-curvature="0"
   style="fill:#121212" />
	<path
   class="st0"
   d="m 422.4,193.2 c 0,-15.1 9.6,-28.2 24.2,-28.2 6.3,0 11.9,2.4 15.1,7.5 L 463,166 h 12.7 l -9.3,47.8 h -12 l 1,-5.2 c -3.2,4.2 -8.2,6.2 -14,6.2 -11.4,0 -19,-9.6 -19,-21.6 z m 35.9,-5.1 c 0,-6.2 -3.8,-11.3 -10.2,-11.3 -7.6,0 -12.8,6.2 -12.8,14.6 0,6.8 4.5,11.4 10.4,11.4 7.8,0.1 12.6,-7 12.6,-14.7 z"
   id="path6"
   inkscape:connector-curvature="0"
   style="fill:#121212" />
	<path
   class="st0"
   d="m 485.6,166 h 12.5 l -1.2,6.5 c 4.4,-5.2 10.6,-7.5 16.3,-7.5 10.8,0 14.1,6.4 14.2,13.4 0,2.3 -0.7,6.5 -1.1,9.1 l -5.1,26.3 h -12.8 l 5,-25 c 0.3,-1.4 0.6,-3.9 0.6,-5.3 0,-3.2 -1.3,-6.3 -7,-6.3 -6.6,0 -11.9,5.3 -13.2,12.4 l -4.6,24.2 h -12.8 z"
   id="path8"
   inkscape:connector-curvature="0"
   style="fill:#121212" />
	<path
   class="st0"
   d="m 533.5,193.2 c 0,-15.1 9.6,-28.2 24.2,-28.2 6.3,0 12,2.5 15,7.7 l 4.4,-21.9 h 12.7 l -12.2,62.9 h -12 l 1.1,-5.5 c -3.4,4.8 -8.8,6.6 -14.1,6.6 -11.6,0 -19.1,-9.6 -19.1,-21.6 z m 35.9,-5.1 c 0,-6.2 -3.7,-11.3 -10.2,-11.3 -7.6,0 -12.8,6.2 -12.8,14.6 0,6.8 4.5,11.4 10.4,11.4 7.8,0.1 12.6,-7 12.6,-14.7 z"
   id="path10"
   inkscape:connector-curvature="0"
   style="fill:#121212" />
	<path
   class="st0"
   d="m 590.8,193.2 c 0,-15.1 9.6,-28.2 24.2,-28.2 6.3,0 11.9,2.4 15.1,7.5 l 1.3,-6.5 h 12.7 l -9.3,47.8 h -12 l 1,-5.2 c -3.2,4.2 -8.2,6.2 -14,6.2 -11.3,0 -19,-9.6 -19,-21.6 z m 36,-5.1 c 0,-6.2 -3.8,-11.3 -10.2,-11.3 -7.6,0 -12.8,6.2 -12.8,14.6 0,6.8 4.5,11.4 10.4,11.4 7.7,0.1 12.6,-7 12.6,-14.7 z"
   id="path12"
   inkscape:connector-curvature="0"
   style="fill:#121212" />
</g>
<g
   id="g28"
   transform="translate(-102,-104.99991)">
	<path
   class="st0"
   d="m 337.9,246.5 h -23.4 l 2.4,-12.8 h 61.7 l -2.4,12.8 H 352.8 L 342,302.7 h -14.9 z"
   id="path16"
   inkscape:connector-curvature="0"
   style="fill:#121212" />
	<path
   class="st0"
   d="m 379.2,249.5 h 14 l -1.9,10 c 2.3,-4.4 9,-11.1 20.9,-11.1 l -3,15.5 c -12.5,0 -19.8,5.5 -22.2,18.3 l -3.8,20.4 h -14.3 z"
   id="path18"
   inkscape:connector-curvature="0"
   style="fill:#121212" />
	<path
   class="st0"
   d="m 414.5,279.8 c 0,-16.8 10.6,-31.4 26.9,-31.4 7,0 13.2,2.7 16.8,8.3 l 1.5,-7.2 h 14.2 l -10.3,53.2 h -13.3 l 1.1,-5.7 c -3.5,4.7 -9.2,6.9 -15.5,6.9 -12.9,0 -21.4,-10.8 -21.4,-24.1 z m 40,-5.6 c 0,-6.9 -4.3,-12.6 -11.4,-12.6 -8.4,0 -14.3,6.9 -14.3,16.3 0,7.6 5,12.7 11.6,12.7 8.6,0 14.1,-7.9 14.1,-16.4 z"
   id="path20"
   inkscape:connector-curvature="0"
   style="fill:#121212" />
	<path
   class="st0"
   d="m 484.8,249.5 h 14 l -1.4,7.3 c 3.2,-4.2 9.9,-8.4 16.6,-8.4 8.8,0 13.5,3.8 15.1,10 4.4,-6 11.5,-10 19.3,-10 12.2,0 15.9,7.1 15.9,14.9 0,2.7 -0.6,7 -1.3,10.1 l -5.6,29.3 h -14.2 l 5.3,-27.9 c 0.3,-1.6 0.9,-4.5 0.9,-6 0,-3.4 -1.6,-6.9 -7.8,-6.9 -6.8,0 -11.7,5.1 -13.2,12.6 l -5.4,28.2 h -14.3 l 5.4,-27.9 c 0.3,-1.6 0.7,-4.5 0.7,-6.1 0,-3.4 -1.5,-6.8 -7.7,-6.8 -6.7,0 -11.7,5.9 -13.2,13.4 l -5.3,27.3 h -14.3 z"
   id="path22"
   inkscape:connector-curvature="0"
   style="fill:#121212" />
	<path
   class="st0"
   d="m 577.9,249.5 h 13.3 l -1.2,6.2 c 3.8,-5 9.8,-7.2 15.6,-7.2 13.3,0 22.2,10.6 22.2,23.9 0,16.8 -10.7,31.5 -27.5,31.5 -7.1,0 -13.5,-2.8 -17.1,-8.7 l -4.6,22.9 h -14.2 z m 35.6,24.8 c 0,-7.6 -5.3,-12.7 -12.2,-12.7 -8.9,0 -14.4,7.9 -14.4,16.4 0,6.9 4.6,12.6 12.1,12.6 8.5,0 14.5,-6.9 14.5,-16.3 z"
   id="path24"
   inkscape:connector-curvature="0"
   style="fill:#121212" />
	<path
   class="st0"
   d="m 635.3,278.5 c 0,-17.2 12.3,-30 29.4,-30 16.3,0 27.7,10.6 27.7,25.5 0,17 -12.3,29.9 -29.3,29.9 -16.3,0 -27.8,-10.8 -27.8,-25.4 z m 42.3,-3.8 c 0,-7.1 -5.1,-13.1 -13.1,-13.1 -8.5,0 -14.7,7 -14.7,15.9 0,7.2 4.9,13.1 13.2,13.1 8.7,0 14.6,-7 14.6,-15.9 z"
   id="path26"
   inkscape:connector-curvature="0"
   style="fill:#121212" />
</g>
<path
   class="st1"
   d="m 205.3,97.300002 c 0,-13.499996 -5.2,-26.099988 -14.8,-35.599988 -9.5,-9.5 -22.2,-14.799998 -35.6,-14.799998 -13.5,0 -26.1,5.199998 -35.7,14.799998 l -2.6,2.6 -2.6,-2.6 c -9.5,-9.5 -22.2,-14.799998 -35.6,-14.799998 -13.5,0 -26.1,5.199998 -35.7,14.799998 -9.5,9.5 -14.8,22.199992 -14.8,35.599988 C 27.9,110.8 33.1,123.4 42.7,133 l 1.5,1.5 c 0.1,0.2 0.3,0.4 0.4,0.6 l 17.7,17.7 c 0.5,0.5 1.2,0.8 1.9,0.8 0.1,0 0.2,0 0.3,0 0.8,-0.1 1.6,-0.6 2,-1.3 0,0 0.4,-0.6 1.1,-1.7 l 15.8,15.5 c -0.4,3.4 0,6.3 1.3,8.5 1.2,2.1 3.2,3.6 5.8,4.3 1,0.3 2.1,0.4 3.2,0.4 0.6,0 1.1,0 1.6,-0.1 0.7,5.8 4.8,7.7 6.8,8.2 1,0.3 2,0.4 3,0.4 0.8,0 1.6,-0.1 2.3,-0.2 0.2,6.7 4.7,8.8 6.9,9.4 1,0.3 2,0.4 3,0.4 2.8,0 5.6,-1 7.9,-3 0.4,-0.3 0.7,-0.6 1,-1 1.7,0.4 3.2,0.6 4.6,0.6 2.8,0 5.2,-0.8 7,-2.3 1.9,-1.7 2.8,-3.9 3.2,-5.8 0.5,0.1 1,0.1 1.6,0.1 0.6,0 1.1,0 1.7,-0.1 3.6,-0.6 5.4,-2.5 6.2,-4.1 1.2,-2.3 1.2,-5 0.8,-7.4 0.2,0 0.4,0 0.6,0 0.8,0 1.6,-0.1 2.4,-0.3 2.7,-0.7 4.9,-2.5 6,-5 1.9,-4.4 -0.2,-9 -1.7,-11.6 l 6.8,-7 c 0.7,1.1 1.2,1.8 1.2,1.8 0.4,0.7 1.2,1.2 2,1.3 0.1,0 0.2,0 0.3,0 0.7,0 1.4,-0.3 1.9,-0.8 l 17.7,-17.7 c 0.2,-0.2 0.3,-0.4 0.4,-0.6 l 1.5,-1.5 c 9.6,-9.6 14.9,-22.2 14.9,-35.699998 z M 46.6,65.500014 c 8.5,-8.5 19.8,-13.2 31.8,-13.2 12,0 23.3,4.7 31.8,13.2 l 4.5,4.5 c 0,0 0,0 0,0 0,0 0,0 0,0 v 0 c 0,0 0.1,0.1 0.1,0.1 0,0 0.1,0.1 0.1,0.1 0,0 0.1,0 0.1,0.1 0,0 0.1,0.1 0.1,0.1 0,0 0.1,0 0.1,0.1 0,0 0.1,0.1 0.1,0.1 0,0 0.1,0 0.1,0 0,0 0.1,0 0.1,0.1 0,0 0.1,0 0.1,0 0,0 0.1,0 0.1,0 0,0 0.1,0 0.1,0 0,0 0.1,0 0.1,0 0,0 0.1,0 0.1,0 0,0 0.1,0 0.1,0 0,0 0.1,0 0.1,0 0,0 0.1,0 0.1,0 0,0 0.1,0 0.1,0 0,0 0.1,0 0.1,0 0,0 0.1,0 0.1,0 0,0 0.1,0 0.1,0 0.1,0 0.1,0 0.2,0 0,0 0.1,0 0.1,0 0.1,0 0.1,0 0.2,-0.1 0,0 0.1,0 0.1,0 0.1,0 0.1,0 0.2,-0.1 0,0 0.1,0 0.1,0 0,0 0.1,-0.1 0.1,-0.1 0,0 0.1,0 0.1,-0.1 0,0 0.1,-0.1 0.1,-0.1 0,0 0.1,0 0.1,-0.1 0,0 0.1,-0.1 0.1,-0.1 0,0 0.1,-0.1 0.1,-0.1 l 4.5,-4.5 c 8.5,-8.5 19.8,-13.2 31.8,-13.2 12,0 23.3,4.7 31.8,13.2 8.5,8.5 13.2,19.79999 13.2,31.799988 C 199.5,109 195,120.1 186.8,128.6 c -7.4,-11.3 -16.1,-19.5 -22.3,-24.4 -7.3,-5.899998 -12.8,-8.599998 -13.1,-8.799998 -1.1,-0.5 -2.4,-0.3 -3.2,0.5 L 129.2,115.6 c -0.7,0.7 -0.9,1.8 -0.6,2.7 0.1,0.4 0.3,0.7 0.6,1 l -0.7,0.9 -13,-1 c -3.8,-0.3 -7.5,1.1 -10.1,3.7 -0.1,0.1 -0.1,0.1 -0.2,0.2 -1.4,-0.6 -2.7,-1.7 -3.8,-2.8 0.3,-0.1 0.5,-0.1 0.8,-0.2 1,-0.2 1.8,-0.9 2.1,-1.9 0.3,-1 0.1,-2 -0.6,-2.7 l -19,-19.699998 c -0.8,-0.9 -2.1,-1.1 -3.2,-0.5 -0.2,0.1 -5.7,2.9 -13.1,8.799998 -6.2,5 -14.9,13.1 -22.3,24.4 -17,-17.4 -16.8,-45.599994 0.5,-62.999986 z M 63.9,146.5 51.6,134.2 c -0.1,-0.2 -0.3,-0.4 -0.5,-0.6 l -1,-1 c 7.1,-11.2 15.6,-19.2 21.7,-24 4.6,-3.6 8.4,-6.1 10.5,-7.3 l 14.4,14.9 c -0.2,0.1 -0.4,0.2 -0.6,0.2 -0.1,0 -0.2,0.1 -0.4,0.1 -14.6,6.1 -27.2,23.1 -31.8,30 z m 28.2,27.1 c -1.1,-0.3 -4,-1.1 -3.1,-7.2 1.6,-1.5 6.2,-5.3 10.7,-3.8 1.2,0.4 2.1,1.5 2.2,2.7 0.2,2.4 -0.9,4.6 -3.2,6.6 -0.5,0.4 -0.9,0.7 -1.4,1 -0.1,0.1 -0.3,0.1 -0.4,0.2 -1.6,0.7 -3.2,0.9 -4.8,0.5 z m 11.6,8.5 c -0.9,-0.3 -3,-0.8 -2.9,-5 0.5,-0.3 0.9,-0.7 1.4,-1 1.2,-1 2.2,-2.1 2.9,-3.2 2,-0.9 3.9,-1.1 5.5,-0.6 1.1,0.3 1.8,1.3 1.9,2.4 0.2,2.1 -0.8,4.1 -2.9,5.9 -1.7,1.5 -3.9,2 -5.9,1.5 z m 18.1,8.1 c -1.7,1.5 -3.9,2 -5.9,1.5 -1,-0.3 -3.5,-1 -2.8,-6.4 1.5,-1.4 5.7,-4.8 9.7,-3.4 1.1,0.3 1.8,1.3 1.9,2.4 0.2,2.1 -0.8,4.1 -2.9,5.9 z m 33.5,-23.4 c -0.6,1.3 -1.7,1.8 -2.3,1.9 -1.2,0.3 -2.5,0.1 -3.5,-0.7 l -19.3,-14.7 c -1.2,-0.9 -2.9,-0.7 -3.8,0.5 -0.9,1.2 -0.7,2.9 0.5,3.8 l 18,13.7 c 0.9,2.1 1.9,5.9 0.9,7.8 -0.1,0.3 -0.5,1 -2.2,1.3 -1.2,0.2 -2.5,0 -3.6,-0.6 -0.1,0 -0.1,-0.1 -0.2,-0.1 -0.4,-0.2 -0.8,-0.5 -1.1,-0.8 l -17.3,-14.4 c -1.2,-1 -2.9,-0.8 -3.8,0.4 -1,1.2 -0.8,2.9 0.4,3.8 l 17.3,14.4 c 0.3,0.2 0.5,0.4 0.8,0.6 -0.1,1.1 -0.4,2.8 -1.5,3.7 -1,0.9 -2.7,1.2 -4.8,0.9 0.6,-1.7 0.7,-3.3 0.6,-4.6 -0.2,-3.3 -2.5,-6.1 -5.7,-7.2 -2.3,-0.8 -4.6,-0.7 -6.6,-0.2 0.1,-0.8 0.1,-1.5 0,-2.2 -0.2,-3.3 -2.4,-6.1 -5.7,-7.2 -1.6,-0.5 -3.3,-0.7 -5,-0.5 0,-0.6 0,-1.2 0,-1.7 -0.3,-3.5 -2.6,-6.4 -6,-7.5 -6.2,-2 -12,1.5 -14.9,3.9 L 70.9,146 c 5.2,-7.2 14.7,-18.6 25.1,-23.6 1.1,1.4 2.9,3.4 5.2,4.8 -3.1,3 -6.7,6.2 -9.3,8.1 -1.3,0.9 -2,2.4 -2,3.9 0,1.6 0.7,3 1.9,4 3.6,2.8 12.9,8 23.9,-0.8 1.2,0.7 3,1.5 5,2.1 4.8,1.4 9.6,0.9 13.8,-1.4 L 153,159 c 1.1,1.4 3.5,5.2 2.3,7.8 z m -0.4,-13.4 -18.2,-15.7 c -0.9,-0.8 -2.3,-0.9 -3.3,-0.2 -8,5.4 -15.9,-0.4 -16.2,-0.6 -1.1,-0.8 -2.5,-0.7 -3.5,0.2 -7.6,7 -13.8,5.2 -17.9,2.3 3.6,-2.7 8.5,-7.3 12.4,-11.1 0,0 0,0 0,0 0.5,-0.5 0.9,-0.9 1.4,-1.3 1.6,-1.5 3.7,-2.3 5.9,-2.2 l 14.5,1.1 c 0.9,0.1 1.8,-0.3 2.4,-1.1 l 2.6,-3.4 c 11.3,4.3 21.8,16.7 27.4,24.4 z m 14.5,-6.9 c -4.7,-7 -17.7,-24.6 -32.8,-30.3 L 151,101.3 c 5.1,3 20.5,13 32.2,31.3 l -1,1 c -0.2,0.2 -0.3,0.4 -0.5,0.6 z"
   id="path30"
   inkscape:connector-curvature="0"
   style="fill:#6c62ff" />
<g
   id="g40"
   transform="translate(-102,-104.99991)">
	<g
   id="g38">
		<g
   id="g36">
			<path
   class="st1"
   d="m 689.1,187.6 c -0.1,-1.5 -0.8,-2.9 -2,-3.8 l -14.4,-11.7 c -1,-0.8 -2.2,-1.2 -3.4,-1.2 -1.7,0 -3.2,0.7 -4.2,2 -1.9,2.3 -1.5,5.8 0.8,7.7 l 9.9,8 -10.5,11.5 c -2,2.2 -1.9,5.7 0.4,7.7 1,0.9 2.3,1.4 3.7,1.4 1.5,0 3,-0.6 4,-1.8 l 14.4,-15.8 c 0.9,-1.1 1.4,-2.5 1.3,-4 z m -3.7,1.9 -14.4,15.8 c -0.8,0.9 -2.4,0.9 -3.3,0.2 -0.9,-0.9 -1,-2.3 -0.2,-3.3 l 12.7,-14 -12.5,-10.1 c -1,-0.8 -1.2,-2.3 -0.3,-3.3 0.4,-0.6 1.1,-0.9 1.8,-0.9 0.5,0 1,0.2 1.5,0.5 l 14.4,11.7 c 0.5,0.4 0.8,1 0.9,1.6 0,0.7 -0.2,1.4 -0.6,1.8 z"
   id="path32"
   inkscape:connector-curvature="0"
   style="fill:#6c62ff" />
			<path
   class="st1"
   d="M 710.7,183.7 696.3,172 c -1,-0.8 -2.2,-1.2 -3.4,-1.2 -1.7,0 -3.2,0.7 -4.2,2 -1.9,2.3 -1.5,5.8 0.8,7.7 l 9.9,8 -10.5,11.5 c -1,1.1 -1.5,2.5 -1.4,3.9 0.1,1.5 0.7,2.8 1.8,3.8 1,0.9 2.3,1.4 3.7,1.4 1.5,0 3,-0.6 4,-1.8 l 14.4,-15.8 c 1,-1.1 1.5,-2.6 1.4,-4.1 -0.2,-1.3 -0.9,-2.7 -2.1,-3.7 z m -1.7,5.8 -14.4,15.8 c -0.8,0.9 -2.4,0.9 -3.3,0.1 -0.5,-0.4 -0.7,-1 -0.8,-1.6 0,-0.6 0.2,-1.2 0.6,-1.7 l 12.7,-14 -12.5,-10.1 c -1,-0.8 -1.2,-2.3 -0.3,-3.3 0.4,-0.6 1.1,-0.9 1.8,-0.9 0.5,0 1,0.2 1.5,0.5 l 14.4,11.7 c 0.5,0.4 0.8,1 0.9,1.6 0.1,0.8 -0.1,1.5 -0.6,1.9 z"
   id="path34"
   inkscape:connector-curvature="0"
   style="fill:#6c62ff" />
		</g>
	</g>
</g>
</svg>